<svg width="182" height="18" viewBox="0 0 182 18" fill="none" xmlns="http://www.w3.org/2000/svg">
<path d="M9.88615 4.51384H10.3292V0.830768C9.68308 0.498461 9.00923 0.276923 8.30769 0.166154C7.60615 0.0553848 6.90461 0 6.20308 0C5.16923 0 4.28308 0.138462 3.54462 0.415384C2.82462 0.673846 2.22462 1.02461 1.74462 1.46769C1.28308 1.89231 0.941538 2.38154 0.72 2.93538C0.516923 3.48923 0.415385 4.04308 0.415385 4.59692C0.415385 5.57538 0.636923 6.36923 1.08 6.97846C1.54154 7.56923 2.10462 8.07692 2.76923 8.50154C3.45231 8.90769 4.18154 9.26769 4.95692 9.58154C5.75077 9.87692 6.48 10.2092 7.14462 10.5785C7.82769 10.9292 8.39077 11.3631 8.83384 11.88C9.29538 12.3969 9.52615 13.0708 9.52615 13.9015C9.52615 14.5108 9.40615 15.0369 9.16615 15.48C8.92615 15.9231 8.61231 16.2923 8.22462 16.5877C7.85538 16.8831 7.43077 17.1046 6.95077 17.2523C6.47077 17.3815 6 17.4461 5.53846 17.4461C4.68923 17.4461 3.96 17.2523 3.35077 16.8646C2.76 16.4769 2.26154 16.0246 1.85538 15.5077C1.46769 14.9723 1.15385 14.4369 0.913846 13.9015C0.692308 13.3662 0.526154 12.96 0.415385 12.6831H0C0.0184616 12.9046 0.0369232 13.2462 0.0553847 13.7077C0.0923077 14.1508 0.129231 14.6123 0.166154 15.0923C0.221538 15.5538 0.286154 15.9785 0.36 16.3661C0.452308 16.7538 0.572308 17.0123 0.72 17.1415C0.867692 17.2708 1.12615 17.3908 1.49538 17.5015C1.88308 17.6123 2.30769 17.7046 2.76923 17.7785C3.23077 17.8523 3.69231 17.9077 4.15385 17.9446C4.61538 17.9815 5.00308 18 5.31692 18C6.36923 18 7.28308 17.8338 8.05846 17.5015C8.85231 17.1692 9.50769 16.7538 10.0246 16.2554C10.5415 15.7385 10.9292 15.1754 11.1877 14.5662C11.4462 13.9385 11.5754 13.3477 11.5754 12.7938C11.5754 11.8892 11.3446 11.1415 10.8831 10.5508C10.44 9.94154 9.87692 9.42461 9.19384 9C8.52923 8.55692 7.8 8.16923 7.00615 7.83692C6.23077 7.50461 5.50154 7.15385 4.81846 6.78461C4.15385 6.39692 3.59077 5.95385 3.12923 5.45538C2.68615 4.95692 2.46462 4.32 2.46462 3.54462C2.46462 3.04615 2.56615 2.61231 2.76923 2.24308C2.99077 1.85538 3.26769 1.54154 3.6 1.30154C3.93231 1.04308 4.29231 0.858461 4.68 0.747693C5.06769 0.618461 5.42769 0.553846 5.76 0.553846C6.70154 0.553846 7.51385 0.895384 8.19692 1.57846C8.89846 2.26154 9.46154 3.24 9.88615 4.51384Z" fill="white"/>
<path fill-rule="evenodd" clip-rule="evenodd" d="M20.4462 10.9108L19.2831 14.0677C19.0985 14.5477 18.9693 14.9169 18.8954 15.1754C18.8216 15.4154 18.7846 15.6646 18.7846 15.9231C18.7846 16.3846 18.9416 16.7077 19.2554 16.8923C19.5693 17.0769 20.0123 17.1877 20.5846 17.2246V17.7785H15.2677V17.2246C15.7108 17.1692 16.0893 17.0677 16.4031 16.92C16.7354 16.7538 17.0493 16.4585 17.3446 16.0338C17.6585 15.5908 17.9908 14.9631 18.3416 14.1508C18.7108 13.3385 19.1631 12.24 19.6985 10.8554L21.8585 5.31692C22.0985 4.70769 22.3108 4.16308 22.4954 3.68308C22.6985 3.18461 22.8 2.86154 22.8 2.71385C22.8 2.56615 22.8093 2.47385 22.8277 2.43692C22.8462 2.38154 22.8831 2.30769 22.9385 2.21538L24.1846 0.332307C24.277 0.184615 24.3508 0.0923078 24.4062 0.0553841C24.48 0.0184615 24.5631 0 24.6554 0C24.7846 0 24.877 0.0553848 24.9323 0.166154C25.0062 0.258461 25.08 0.424615 25.1539 0.664615C25.2277 0.886154 25.32 1.18154 25.4308 1.55077C25.5416 1.92 25.6985 2.36308 25.9016 2.88L30.0554 13.5415C30.3693 14.3538 30.6369 14.9908 30.8585 15.4523C31.0985 15.9138 31.3293 16.2738 31.5508 16.5323C31.7723 16.7723 32.0216 16.9385 32.2985 17.0308C32.5939 17.1231 32.9539 17.1877 33.3785 17.2246V17.7785H26.4831V17.2246C27.24 17.1323 27.7385 17.0123 27.9785 16.8646C28.2369 16.7169 28.3662 16.5046 28.3662 16.2277C28.3662 15.9877 28.3293 15.7108 28.2554 15.3969C28.1816 15.0646 28.0708 14.7138 27.9231 14.3446L26.6216 10.9108H20.4462ZM26.3446 10.1354L23.9631 4.01538C23.8708 3.79385 23.7877 3.57231 23.7139 3.35077L23.5754 2.79692H23.52C23.4277 3.07385 23.317 3.39692 23.1877 3.76615L22.8 4.81846C22.6708 5.16923 22.5416 5.49231 22.4123 5.78769L22.1631 6.45231L20.7508 10.1354H26.3446Z" fill="white"/>
<path d="M76.4308 5.59384C76.2831 5.11385 76.0616 4.57846 75.7662 3.98769C75.4708 3.39692 75.0739 2.85231 74.5754 2.35385C74.0954 1.83692 73.4954 1.41231 72.7754 1.08C72.0554 0.72923 71.1877 0.553846 70.1723 0.553846C69.3785 0.553846 68.6123 0.72923 67.8739 1.08C67.1354 1.41231 66.4708 1.93846 65.88 2.65846C65.3077 3.36 64.8462 4.25538 64.4954 5.34461C64.1446 6.43384 63.9693 7.71692 63.9693 9.19384C63.9693 10.4123 64.1354 11.5292 64.4677 12.5446C64.8185 13.56 65.2985 14.4277 65.9077 15.1477C66.5169 15.8677 67.2369 16.4308 68.0677 16.8369C68.9169 17.2431 69.8493 17.4461 70.8646 17.4461C71.5846 17.4461 72.2493 17.3354 72.8585 17.1138C73.4862 16.8738 74.0493 16.5508 74.5477 16.1446C75.0646 15.7385 75.5169 15.2585 75.9046 14.7046C76.3108 14.1323 76.6523 13.5231 76.9293 12.8769H77.4831L77.0954 15.6462C76.8739 15.9046 76.56 16.1723 76.1539 16.4492C75.7477 16.7261 75.2585 16.9846 74.6862 17.2246C74.1323 17.4462 73.4954 17.6308 72.7754 17.7785C72.0739 17.9261 71.3077 18 70.4769 18C68.9631 18 67.6246 17.76 66.4616 17.28C65.3169 16.8 64.3477 16.1631 63.5539 15.3692C62.7785 14.5754 62.1877 13.6615 61.7816 12.6277C61.3939 11.5938 61.2 10.5323 61.2 9.44307C61.2 8.13231 61.4123 6.90461 61.8369 5.76C62.2616 4.59692 62.8708 3.59077 63.6646 2.74154C64.4769 1.89231 65.4554 1.22769 66.6 0.747693C67.7446 0.249231 69.0277 0 70.4493 0C70.9293 0 71.4739 0.0553848 72.0831 0.166154C72.7108 0.258461 73.3385 0.406153 73.9662 0.609231C74.5939 0.793846 75.1754 1.01538 75.7108 1.27385C76.2646 1.53231 76.7169 1.82769 77.0677 2.16L76.9293 5.59384H76.4308Z" fill="white"/>
<path fill-rule="evenodd" clip-rule="evenodd" d="M127.693 14.0677L128.856 10.9108H135.031L136.333 14.3446C136.481 14.7138 136.591 15.0646 136.665 15.3969C136.739 15.7108 136.776 15.9877 136.776 16.2277C136.776 16.5046 136.647 16.7169 136.388 16.8646C136.148 17.0123 135.65 17.1323 134.893 17.2246V17.7785H141.788V17.2246C141.364 17.1877 141.004 17.1231 140.708 17.0308C140.431 16.9385 140.182 16.7723 139.961 16.5323C139.739 16.2738 139.508 15.9138 139.268 15.4523C139.047 14.9908 138.779 14.3538 138.465 13.5415L134.311 2.88C134.108 2.36308 133.951 1.92 133.841 1.55077C133.73 1.18154 133.638 0.886154 133.564 0.664615C133.49 0.424615 133.416 0.258461 133.342 0.166154C133.287 0.0553848 133.195 0 133.065 0C132.973 0 132.89 0.0184615 132.816 0.0553841C132.761 0.0923078 132.687 0.184615 132.595 0.332307L131.348 2.21538C131.293 2.30769 131.256 2.38154 131.238 2.43692C131.219 2.47385 131.21 2.56615 131.21 2.71385C131.21 2.86154 131.108 3.18461 130.905 3.68308C130.721 4.16308 130.508 4.70769 130.268 5.31692L128.108 10.8554C127.573 12.24 127.121 13.3385 126.751 14.1508C126.401 14.9631 126.068 15.5908 125.755 16.0338C125.459 16.4585 125.145 16.7538 124.813 16.92C124.499 17.0677 124.121 17.1692 123.678 17.2246V17.7785H128.995V17.2246C128.422 17.1877 127.979 17.0769 127.665 16.8923C127.351 16.7077 127.195 16.3846 127.195 15.9231C127.195 15.6646 127.231 15.4154 127.305 15.1754C127.379 14.9169 127.508 14.5477 127.693 14.0677ZM132.373 4.01538L134.755 10.1354H129.161L130.573 6.45231L130.822 5.78769C130.951 5.49231 131.081 5.16923 131.21 4.81846L131.598 3.76615C131.727 3.39692 131.838 3.07385 131.93 2.79692H131.985L132.124 3.35077C132.198 3.57231 132.281 3.79385 132.373 4.01538Z" fill="white"/>
<path d="M171.349 0.221539V0.775385C170.739 0.775385 170.296 0.849231 170.019 0.996923C169.761 1.14461 169.632 1.34769 169.632 1.60615C169.632 1.82769 169.706 2.10461 169.853 2.43692C170.001 2.75077 170.232 3.17538 170.546 3.71077C170.878 4.24615 171.302 4.92 171.819 5.73231C172.336 6.54461 172.964 7.55077 173.702 8.75077C174.441 7.56923 175.078 6.59077 175.613 5.81538C176.149 5.04 176.582 4.39384 176.915 3.87692C177.247 3.36 177.487 2.93538 177.635 2.60308C177.801 2.27077 177.884 1.96615 177.884 1.68923C177.884 1.37538 177.773 1.14461 177.552 0.996923C177.33 0.849231 176.952 0.775385 176.416 0.775385V0.221539H181.484V0.775385C181.262 0.793846 181.041 0.84 180.819 0.913846C180.616 0.969231 180.404 1.07077 180.182 1.21846C179.961 1.36615 179.721 1.58769 179.462 1.88308C179.204 2.16 178.909 2.52923 178.576 2.99077L174.007 9.55384V14.7323C174.007 15.3231 174.035 15.7846 174.09 16.1169C174.164 16.4492 174.302 16.6985 174.506 16.8646C174.709 17.0123 174.995 17.1138 175.364 17.1692C175.733 17.2062 176.222 17.2246 176.832 17.2246V17.7785H168.801V17.2246C169.41 17.2246 169.899 17.2062 170.269 17.1692C170.638 17.1138 170.924 17.0123 171.127 16.8646C171.33 16.6985 171.459 16.4492 171.515 16.1169C171.589 15.7846 171.626 15.3231 171.626 14.7323V9.52615L166.973 2.54769C166.733 2.19692 166.521 1.92 166.336 1.71692C166.152 1.49538 165.967 1.32923 165.782 1.21846C165.616 1.08923 165.441 0.996923 165.256 0.941538C165.072 0.886154 164.859 0.83077 164.619 0.775385V0.221539H171.349Z" fill="white"/>
<path fill-rule="evenodd" clip-rule="evenodd" d="M145.481 17.2246C145.979 17.2246 146.376 17.1969 146.672 17.1415C146.985 17.0677 147.225 16.9477 147.392 16.7815C147.558 16.5969 147.668 16.3477 147.724 16.0338C147.779 15.7015 147.807 15.2677 147.807 14.7323C147.807 12.6831 147.825 10.7446 147.862 8.91692C147.899 7.08923 147.908 5.20615 147.89 3.26769C147.89 2.75077 147.862 2.32616 147.807 1.99385C147.752 1.66154 147.65 1.41231 147.502 1.24616C147.355 1.06154 147.152 0.94154 146.893 0.886156C146.635 0.81231 146.293 0.775387 145.868 0.775387V0.221541H151.241C152.348 0.221541 153.364 0.313849 154.287 0.498464C155.21 0.664618 155.995 0.93231 156.641 1.30154C157.305 1.67077 157.813 2.14154 158.164 2.71385C158.533 3.28616 158.718 3.96923 158.718 4.76308C158.718 5.53846 158.542 6.18462 158.192 6.70154C157.841 7.21846 157.435 7.63385 156.973 7.94769C156.512 8.26154 156.05 8.49231 155.589 8.64C155.145 8.78769 154.822 8.88923 154.619 8.94462L159.188 15.7015C159.558 16.2369 159.927 16.6246 160.296 16.8646C160.665 17.1046 161.09 17.2246 161.57 17.2246V17.7785H158.496C158.367 17.7785 158.219 17.7323 158.053 17.64C157.905 17.5292 157.675 17.2338 157.361 16.7538L152.598 9.36H150.188V14.7323C150.188 15.2677 150.216 15.7015 150.272 16.0338C150.327 16.3477 150.438 16.5969 150.604 16.7815C150.788 16.9477 151.038 17.0677 151.352 17.1415C151.665 17.1969 152.081 17.2246 152.598 17.2246V17.7785H145.481V17.2246ZM150.188 8.69539C151.241 8.69539 152.145 8.64 152.902 8.52923C153.659 8.4 154.278 8.18769 154.758 7.89231C155.238 7.57846 155.588 7.17231 155.81 6.67385C156.05 6.15692 156.17 5.50154 156.17 4.70769C156.17 4.08 156.05 3.52616 155.81 3.04616C155.588 2.56616 155.284 2.16923 154.896 1.85539C154.508 1.52308 154.065 1.28308 153.567 1.13539C153.068 0.969233 152.552 0.886156 152.016 0.886156C151.241 0.886156 150.742 0.987694 150.521 1.19077C150.299 1.39385 150.188 1.77231 150.188 2.32616V8.69539Z" fill="white"/>
<path d="M102.44 0.221541H109.945V0.775387C109.28 0.775387 108.754 0.81231 108.366 0.886156C107.979 0.94154 107.683 1.06154 107.48 1.24616C107.277 1.41231 107.139 1.66154 107.065 1.99385C107.01 2.32616 106.982 2.75077 106.982 3.26769V12.0185C106.982 12.7385 107.102 13.3938 107.342 13.9846C107.6 14.5754 107.96 15.0923 108.422 15.5354C108.902 15.96 109.483 16.2923 110.166 16.5323C110.868 16.7723 111.653 16.8923 112.52 16.8923C113.48 16.8923 114.283 16.7631 114.93 16.5046C115.576 16.2277 116.093 15.84 116.48 15.3415C116.886 14.8431 117.173 14.2338 117.339 13.5138C117.523 12.7754 117.634 11.9446 117.671 11.0215L117.948 3.26769C117.985 2.28923 117.763 1.63385 117.283 1.30154C116.822 0.950771 116.166 0.775387 115.317 0.775387V0.221541H121.271V0.775387C120.791 0.830772 120.394 0.92308 120.08 1.05231C119.785 1.16308 119.554 1.37539 119.388 1.68923C119.222 1.98462 119.102 2.4 119.028 2.93539C118.954 3.47077 118.908 4.17231 118.89 5.04L118.668 11.52C118.65 12.3323 118.548 13.1262 118.363 13.9015C118.179 14.6769 117.837 15.3692 117.339 15.9785C116.859 16.5877 116.176 17.0769 115.29 17.4462C114.422 17.8154 113.286 18 111.883 18C109.576 18 107.813 17.5108 106.594 16.5323C105.376 15.5538 104.766 14.0308 104.766 11.9631V3.26769C104.766 2.75077 104.739 2.32616 104.683 1.99385C104.628 1.66154 104.517 1.41231 104.351 1.24616C104.185 1.06154 103.945 0.94154 103.631 0.886156C103.336 0.81231 102.939 0.775387 102.44 0.775387V0.221541Z" fill="white"/>
<path d="M98.7481 4.29232L98.3814 0.240012H81.5445L81.1753 4.29232H81.5789C81.8004 3.84924 82.0497 3.45232 82.3266 3.10155C82.6035 2.73232 82.9358 2.4277 83.3235 2.1877C83.7297 1.9477 84.2004 1.76309 84.7358 1.63386C85.2712 1.50463 85.8989 1.44001 86.6189 1.44001C87.1543 1.44001 87.5697 1.45847 87.865 1.4954C88.1789 1.51386 88.4004 1.59693 88.5297 1.74462C88.6773 1.89232 88.7604 2.12309 88.7789 2.43693C88.8158 2.75078 88.8343 3.19386 88.8343 3.76616C88.8343 4.20924 88.825 4.75386 88.8066 5.40001C88.8066 6.0277 88.7973 6.70155 88.7789 7.42155C88.7604 8.14155 88.7327 8.88001 88.6958 9.63693C88.6774 10.3939 88.6589 11.1046 88.6404 11.7692C88.622 12.4339 88.6035 13.0339 88.585 13.5692V14.7323C88.585 15.2677 88.5481 15.7015 88.4743 16.0339C88.4189 16.3477 88.2897 16.5969 88.0866 16.7815C87.8835 16.9477 87.5881 17.0677 87.2004 17.1415C86.8312 17.1969 86.3235 17.2246 85.6774 17.2246V17.7785H93.625V17.2246C93.0527 17.2062 92.582 17.16 92.2127 17.0862C91.8435 16.9939 91.5574 16.8554 91.3543 16.6708C91.1512 16.4862 91.0035 16.2369 90.9112 15.9231C90.8373 15.6092 90.8004 15.2123 90.8004 14.7323V13.5692C90.8189 13.0523 90.8374 12.4615 90.8558 11.7969C90.8743 11.1139 90.8927 10.3939 90.9112 9.63693C90.9481 8.88001 90.9758 8.14155 90.9943 7.42155C91.0127 6.70155 91.022 6.01847 91.022 5.37232C91.0404 4.72616 91.0497 4.19078 91.0497 3.76616C91.0497 3.17539 91.0681 2.72309 91.105 2.40924C91.1604 2.07693 91.2712 1.83693 91.4373 1.68924C91.622 1.52309 91.8804 1.42155 92.2127 1.38463C92.5635 1.3477 93.025 1.32924 93.5974 1.32924C94.3173 1.32924 94.9358 1.36616 95.4527 1.44001C95.9881 1.51386 96.4404 1.66155 96.8096 1.88309C97.1789 2.08616 97.4835 2.38155 97.7235 2.76924C97.982 3.15693 98.1943 3.66463 98.3604 4.29232H98.7481Z" fill="white"/>
<path d="M38.6217 17.0308C38.3263 17.1046 37.9571 17.1692 37.514 17.2246V17.7785H43.1355V17.2246C42.6371 17.1692 42.2309 17.0954 41.9171 17.0031C41.6032 16.9108 41.354 16.7538 41.1694 16.5323C41.0032 16.2923 40.8832 15.9508 40.8094 15.5077C40.754 15.0462 40.7263 14.4277 40.7263 13.6523V2.88H40.8094C41.5294 3.78462 42.3232 4.72615 43.1909 5.70462C44.0586 6.68308 44.9448 7.66154 45.8494 8.64C46.754 9.61846 47.6401 10.5785 48.5078 11.52C49.394 12.4431 50.2063 13.3108 50.9447 14.1231C51.7017 14.9169 52.3571 15.6369 52.9109 16.2831C53.4647 16.9108 53.8617 17.4092 54.1017 17.7785H54.6001C54.6186 16.9846 54.6371 16.0985 54.6555 15.12C54.6924 14.1231 54.7201 13.1169 54.7386 12.1015C54.7755 11.0862 54.8032 10.0892 54.8217 9.11077C54.8586 8.13231 54.8863 7.24615 54.9047 6.45231C54.9232 5.64 54.9324 4.95692 54.9324 4.40308C54.9509 3.83077 54.9601 3.46154 54.9601 3.29539C54.9601 2.48308 55.1355 1.89231 55.4863 1.52308C55.8371 1.15385 56.5109 0.904617 57.5078 0.775387V0.221541H51.554V0.775387C52.5878 0.904617 53.2709 1.15385 53.6032 1.52308C53.954 1.89231 54.1294 2.48308 54.1294 3.29539C54.1294 3.96 54.1201 4.73539 54.1017 5.62154C54.1017 6.50769 54.0924 7.43077 54.074 8.39077C54.074 9.35077 54.0647 10.32 54.0463 11.2985C54.0278 12.2585 54.0094 13.1446 53.9909 13.9569C53.7694 13.7169 53.354 13.2738 52.7448 12.6277C52.1355 11.9631 51.4247 11.1969 50.6124 10.3292C49.8186 9.46154 48.9601 8.52923 48.0371 7.53231C47.114 6.53539 46.2186 5.56615 45.3509 4.62462C44.5017 3.68308 43.7263 2.82462 43.0247 2.04923C42.3232 1.27385 41.7971 0.664618 41.4463 0.221541H37.0709V0.775387C37.5324 0.812309 37.9386 0.876925 38.2894 0.969232C38.6586 1.04308 38.954 1.17231 39.1755 1.35692C39.4155 1.52308 39.5909 1.76308 39.7017 2.07692C39.8309 2.39077 39.8955 2.80616 39.8955 3.32308V13.6523C39.8955 14.4277 39.8494 15.0462 39.7571 15.5077C39.6832 15.9508 39.554 16.2923 39.3694 16.5323C39.1848 16.7723 38.9355 16.9385 38.6217 17.0308Z" fill="white"/>
</svg>
